<svg width="48" height="48" viewBox="0 0 48 48" fill="none" xmlns="http://www.w3.org/2000/svg">
<path d="M24.0008 6.54546C19.2605 6.54546 18.6656 6.56618 16.8039 6.65091C14.9458 6.736 13.6774 7.03018 12.5677 7.46182C11.4197 7.90764 10.4459 8.504 9.47574 9.47455C8.50487 10.4447 7.90852 11.4185 7.46126 12.5662C7.02855 13.6764 6.73401 14.9451 6.65038 16.8025C6.56711 18.6644 6.54529 19.2596 6.54529 24C6.54529 28.7404 6.56638 29.3335 6.65074 31.1953C6.73619 33.0535 7.03036 34.3218 7.46162 35.4316C7.90779 36.5796 8.50414 37.5535 9.47465 38.5236C10.4444 39.4945 11.4182 40.0924 12.5655 40.5382C13.676 40.9698 14.9447 41.264 16.8024 41.3491C18.6642 41.4338 19.2587 41.4545 23.9986 41.4545C28.7392 41.4545 29.3322 41.4338 31.194 41.3491C33.0521 41.264 34.3219 40.9698 35.4324 40.5382C36.58 40.0924 37.5523 39.4945 38.5221 38.5236C39.493 37.5535 40.0894 36.5796 40.5366 35.432C40.9657 34.3218 41.2602 33.0531 41.3475 31.1956C41.4311 29.3338 41.453 28.7404 41.453 24C41.453 19.2596 41.4311 18.6647 41.3475 16.8029C41.2602 14.9447 40.9657 13.6764 40.5366 12.5665C40.0894 11.4185 39.493 10.4447 38.5221 9.47455C37.5513 8.50364 36.5804 7.90727 35.4313 7.46182C34.3186 7.03018 33.0496 6.736 31.1915 6.65091C29.3297 6.56618 28.737 6.54546 23.9953 6.54546H24.0008ZM22.435 9.69091C22.8997 9.69018 23.4182 9.69091 24.0008 9.69091C28.661 9.69091 29.2133 9.70764 31.0536 9.79127C32.7554 9.86909 33.679 10.1535 34.2943 10.3924C35.1088 10.7087 35.6895 11.0869 36.3 11.6978C36.9109 12.3087 37.2891 12.8905 37.6062 13.7051C37.8451 14.3196 38.1298 15.2433 38.2072 16.9451C38.2909 18.7851 38.3091 19.3378 38.3091 23.996C38.3091 28.6542 38.2909 29.2069 38.2072 31.0469C38.1294 32.7487 37.8451 33.6724 37.6062 34.2869C37.2898 35.1015 36.9109 35.6815 36.3 36.292C35.6891 36.9029 35.1091 37.2811 34.2943 37.5975C33.6797 37.8375 32.7554 38.1211 31.0536 38.1989C29.2137 38.2825 28.661 38.3007 24.0008 38.3007C19.3402 38.3007 18.7878 38.2825 16.9479 38.1989C15.2461 38.1204 14.3225 37.836 13.7069 37.5971C12.8924 37.2807 12.3106 36.9025 11.6997 36.2916C11.0888 35.6807 10.7106 35.1004 10.3935 34.2855C10.1546 33.6709 9.86991 32.7473 9.79246 31.0455C9.70883 29.2055 9.6921 28.6527 9.6921 23.9916C9.6921 19.3305 9.70883 18.7807 9.79246 16.9407C9.87028 15.2389 10.1546 14.3153 10.3935 13.7C10.7099 12.8855 11.0888 12.3036 11.6997 11.6927C12.3106 11.0818 12.8924 10.7036 13.7069 10.3865C14.3221 10.1465 15.2461 9.86291 16.9479 9.78473C18.558 9.712 19.182 9.69018 22.435 9.68655V9.69091ZM33.3176 12.5891C32.1612 12.5891 31.2231 13.5262 31.2231 14.6829C31.2231 15.8393 32.1612 16.7775 33.3176 16.7775C34.4739 16.7775 35.4121 15.8393 35.4121 14.6829C35.4121 13.5265 34.4739 12.5884 33.3176 12.5884V12.5891ZM24.0008 15.0364C19.0507 15.0364 15.0374 19.0498 15.0374 24C15.0374 28.9502 19.0507 32.9618 24.0008 32.9618C28.9508 32.9618 32.9627 28.9502 32.9627 24C32.9627 19.0498 28.9504 15.0364 24.0004 15.0364H24.0008ZM24.0008 18.1818C27.2138 18.1818 29.8188 20.7865 29.8188 24C29.8188 27.2131 27.2138 29.8182 24.0008 29.8182C20.7874 29.8182 18.1828 27.2131 18.1828 24C18.1828 20.7865 20.7874 18.1818 24.0008 18.1818Z" fill="url(#paint0_radial_77_107)"/>
<path d="M24.0008 6.54544C19.2605 6.54544 18.6656 6.56617 16.8039 6.6509C14.9458 6.73599 13.6774 7.03017 12.5677 7.4618C11.4197 7.90762 10.4459 8.50399 9.47574 9.47453C8.50487 10.4447 7.90852 11.4185 7.46126 12.5662C7.02855 13.6763 6.73401 14.9451 6.65038 16.8025C6.56711 18.6643 6.54529 19.2596 6.54529 24C6.54529 28.7403 6.56638 29.3334 6.65074 31.1953C6.73619 33.0534 7.03036 34.3218 7.46162 35.4316C7.90779 36.5796 8.50414 37.5534 9.47465 38.5236C10.4444 39.4945 11.4182 40.0924 12.5655 40.5382C13.676 40.9698 14.9447 41.264 16.8024 41.3491C18.6642 41.4338 19.2587 41.4545 23.9986 41.4545C28.7392 41.4545 29.3322 41.4338 31.194 41.3491C33.0521 41.264 34.3219 40.9698 35.4324 40.5382C36.58 40.0924 37.5523 39.4945 38.5221 38.5236C39.493 37.5534 40.0894 36.5796 40.5366 35.432C40.9657 34.3218 41.2602 33.0531 41.3475 31.1956C41.4311 29.3338 41.453 28.7403 41.453 24C41.453 19.2596 41.4311 18.6647 41.3475 16.8029C41.2602 14.9447 40.9657 13.6763 40.5366 12.5665C40.0894 11.4185 39.493 10.4447 38.5221 9.47453C37.5513 8.50362 36.5804 7.90726 35.4313 7.4618C34.3186 7.03017 33.0496 6.73599 31.1915 6.6509C29.3297 6.56617 28.737 6.54544 23.9953 6.54544H24.0008ZM22.435 9.69089C22.8997 9.69017 23.4182 9.69089 24.0008 9.69089C28.661 9.69089 29.2133 9.70762 31.0536 9.79126C32.7554 9.86908 33.679 10.1534 34.2943 10.3923C35.1088 10.7087 35.6895 11.0869 36.3 11.6978C36.9109 12.3087 37.2891 12.8905 37.6062 13.7051C37.8451 14.3196 38.1298 15.2433 38.2072 16.9451C38.2909 18.7851 38.3091 19.3378 38.3091 23.996C38.3091 28.6542 38.2909 29.2069 38.2072 31.0469C38.1294 32.7487 37.8451 33.6723 37.6062 34.2869C37.2898 35.1014 36.9109 35.6814 36.3 36.292C35.6891 36.9029 35.1091 37.2811 34.2943 37.5974C33.6797 37.8374 32.7554 38.1211 31.0536 38.1989C29.2137 38.2825 28.661 38.3007 24.0008 38.3007C19.3402 38.3007 18.7878 38.2825 16.9479 38.1989C15.2461 38.1203 14.3225 37.836 13.7069 37.5971C12.8924 37.2807 12.3106 36.9025 11.6997 36.2916C11.0888 35.6807 10.7106 35.1003 10.3935 34.2854C10.1546 33.6709 9.86991 32.7473 9.79246 31.0454C9.70883 29.2054 9.6921 28.6527 9.6921 23.9916C9.6921 19.3305 9.70883 18.7807 9.79246 16.9407C9.87028 15.2389 10.1546 14.3153 10.3935 13.7C10.7099 12.8854 11.0888 12.3036 11.6997 11.6927C12.3106 11.0818 12.8924 10.7036 13.7069 10.3865C14.3221 10.1465 15.2461 9.8629 16.9479 9.78471C18.558 9.71199 19.182 9.69017 22.435 9.68653V9.69089ZM33.3176 12.5891C32.1612 12.5891 31.2231 13.5262 31.2231 14.6829C31.2231 15.8393 32.1612 16.7774 33.3176 16.7774C34.4739 16.7774 35.4121 15.8393 35.4121 14.6829C35.4121 13.5265 34.4739 12.5883 33.3176 12.5883V12.5891ZM24.0008 15.0363C19.0507 15.0363 15.0374 19.0498 15.0374 24C15.0374 28.9502 19.0507 32.9618 24.0008 32.9618C28.9508 32.9618 32.9627 28.9502 32.9627 24C32.9627 19.0498 28.9504 15.0363 24.0004 15.0363H24.0008ZM24.0008 18.1818C27.2138 18.1818 29.8188 20.7865 29.8188 24C29.8188 27.2131 27.2138 29.8182 24.0008 29.8182C20.7874 29.8182 18.1828 27.2131 18.1828 24C18.1828 20.7865 20.7874 18.1818 24.0008 18.1818Z" fill="url(#paint1_radial_77_107)"/>
<defs>
<radialGradient id="paint0_radial_77_107" cx="0" cy="0" r="1" gradientUnits="userSpaceOnUse" gradientTransform="translate(15.8177 44.1433) rotate(-90) scale(34.5975 32.1771)">
<stop stop-color="#FFDD55"/>
<stop offset="0.1" stop-color="#FFDD55"/>
<stop offset="0.5" stop-color="#FF543E"/>
<stop offset="1" stop-color="#C837AB"/>
</radialGradient>
<radialGradient id="paint1_radial_77_107" cx="0" cy="0" r="1" gradientUnits="userSpaceOnUse" gradientTransform="translate(0.698069 9.06023) rotate(78.6811) scale(15.4652 63.7458)">
<stop stop-color="#3771C8"/>
<stop offset="0.128" stop-color="#3771C8"/>
<stop offset="1" stop-color="#6600FF" stop-opacity="0"/>
</radialGradient>
</defs>
</svg>
